<?xml version="1.0" encoding="UTF-8" standalone="no"?>
<!DOCTYPE svg PUBLIC "-//W3C//DTD SVG 1.1//EN" "http://www.w3.org/Graphics/SVG/1.1/DTD/svg11.dtd">
<svg xmlns="http://www.w3.org/2000/svg" version="1.1" viewBox="0.00 0.00 700.00 700.00">
<g stroke-width="2.00" fill="none" stroke-linecap="butt">
<path stroke="#707179" vector-effect="non-scaling-stroke" d="
  M 328.91 153.92
  Q 327.06 156.22 327.28 159.15
  Q 327.30 159.50 327.03 159.73
  Q 326.89 159.85 326.82 160.02
  Q 326.54 160.65 326.54 161.02
  C 326.48 164.04 325.41 166.99 325.37 169.70
  C 324.95 200.05 345.68 222.43 373.01 232.71
  Q 386.19 237.66 395.00 238.50
  C 405.10 239.45 414.10 241.08 425.63 240.24
  C 427.62 240.09 429.89 239.63 432.08 239.45
  C 459.84 237.14 488.30 224.74 502.85 200.10
  C 508.15 191.13 509.64 182.50 510.04 172.11
  C 510.12 170.04 509.61 167.85 509.50 165.67
  C 509.30 161.89 508.40 158.94 507.51 155.49
  Q 506.21 150.52 506.28 149.10"
/>
<path stroke="#8d8c8d" vector-effect="non-scaling-stroke" d="
  M 506.28 149.10
  Q 506.62 113.29 506.26 78.37
  Q 506.19 72.31 504.98 69.83
  C 502.57 64.96 496.57 63.78 492.00 66.89
  Q 470.19 81.78 448.33 96.62
  C 446.07 98.15 445.76 99.38 442.46 98.28
  C 426.81 93.05 407.38 94.24 391.91 98.47
  C 389.81 99.04 388.96 98.87 387.30 97.67
  Q 372.88 87.32 345.23 68.55
  C 343.25 67.21 341.13 65.57 338.77 65.26
  C 333.37 64.56 329.69 68.00 329.29 73.25
  Q 329.14 75.25 329.13 77.25
  Q 328.99 115.64 328.91 153.92"
/>
<path stroke="#e1e4ea" vector-effect="non-scaling-stroke" d="
  M 506.28 149.10
  Q 503.72 147.39 501.75 143.76
  Q 501.49 143.28 501.03 143.44
  Q 500.54 143.62 500.61 144.13
  C 501.81 152.76 501.96 160.07 498.88 168.19
  C 489.85 192.01 471.95 213.00 447.73 222.26
  C 409.25 236.99 368.85 222.44 345.94 189.08
  C 337.34 176.55 331.66 160.81 334.49 146.14
  Q 335.18 142.57 333.28 145.67
  Q 331.13 149.19 328.91 153.92"
/>
<path stroke="#8d8c8d" vector-effect="non-scaling-stroke" d="
  M 300.7942 129.3941
  A 4.39 4.39 0.0 0 0 299.9087 123.2492
  L 284.3585 111.6162
  A 4.39 4.39 0.0 0 0 278.2136 112.5017
  L 278.0458 112.7259
  A 4.39 4.39 0.0 0 0 278.9313 118.8708
  L 294.4815 130.5038
  A 4.39 4.39 0.0 0 0 300.6264 129.6183
  L 300.7942 129.3941"
/>
<path stroke="#8d8c8d" vector-effect="non-scaling-stroke" d="
  M 559.8615 112.5122
  A 4.34 4.34 0.0 0 0 553.7850 111.6474
  L 538.3191 123.2595
  A 4.34 4.34 0.0 0 0 537.4543 129.3360
  L 537.7185 129.6878
  A 4.34 4.34 0.0 0 0 543.7950 130.5526
  L 559.2609 118.9405
  A 4.34 4.34 0.0 0 0 560.1257 112.8640
  L 559.8615 112.5122"
/>
<path stroke="#8d8c8d" vector-effect="non-scaling-stroke" d="
  M 540.50 152.07
  C 538.85 152.08 537.08 151.78 536.39 153.94
  Q 536.25 154.37 536.34 154.82
  Q 536.45 155.34 536.14 155.78
  Q 535.85 156.19 535.91 156.69
  Q 536.17 158.82 537.51 160.43
  Q 537.82 160.80 538.30 160.73
  Q 539.03 160.62 539.54 161.01
  Q 540.04 161.40 540.68 161.39
  L 568.28 160.89
  A 3.27 3.27 0.0 0 0 571.49 157.41
  L 571.42 156.35
  Q 571.14 152.03 566.82 152.02
  Q 552.61 151.98 540.50 152.07"
/>
<path stroke="#8d8c8d" vector-effect="non-scaling-stroke" d="
  M 271.26 158.54
  Q 271.60 159.83 272.99 160.44
  Q 273.45 160.64 273.93 160.78
  Q 274.50 160.94 275.02 161.25
  A 1.29 1.25 57.6 0 0 275.77 161.43
  Q 285.78 160.88 295.75 161.23
  Q 298.98 161.35 300.54 160.50
  C 304.40 158.38 303.02 151.98 298.76 151.98
  Q 287.92 151.97 277.06 151.92
  C 275.62 151.92 274.34 152.38 272.77 152.31
  Q 272.27 152.29 272.02 152.73
  Q 271.16 154.21 270.45 155.73
  C 270.07 156.56 270.22 157.19 270.82 157.79
  Q 271.14 158.11 271.26 158.54"
/>
<path stroke="#707179" vector-effect="non-scaling-stroke" d="
  M 227.88 382.18
  C 236.79 390.43 247.51 394.20 259.18 396.96
  C 260.86 397.36 262.74 397.40 264.54 397.77
  C 267.61 398.42 269.88 398.49 272.73 398.58
  Q 273.22 398.59 273.47 398.17
  C 277.63 391.21 279.97 382.69 281.63 374.74"
/>
<path stroke="#8d8c8d" vector-effect="non-scaling-stroke" d="
  M 281.63 374.74
  L 284.26 364.06
  Q 284.38 363.55 283.86 363.56
  C 269.98 363.91 255.48 360.34 245.80 349.66
  Q 235.80 338.63 235.84 322.24
  Q 235.92 287.04 236.01 251.85
  Q 236.03 242.90 235.45 238.18
  C 233.24 220.38 224.49 203.77 211.28 191.82
  C 167.94 152.62 106.30 182.90 101.39 238.25
  C 100.54 247.81 105.07 258.26 114.47 261.42
  C 124.37 264.74 134.38 258.90 137.36 249.01
  C 138.84 244.09 138.29 236.71 139.77 230.75
  C 144.08 213.36 163.13 204.42 179.34 211.77
  C 186.98 215.23 193.49 222.13 196.64 229.87
  Q 200.23 238.72 200.25 244.75
  Q 200.39 281.63 200.36 318.50
  Q 200.35 332.70 201.22 338.45
  Q 205.31 365.38 227.88 382.18"
/>
<path stroke="#e1e4ea" vector-effect="non-scaling-stroke" d="
  M 281.63 374.74
  Q 278.91 376.78 276.33 378.72
  C 266.24 386.32 251.20 388.29 239.22 384.83
  Q 231.86 382.71 227.88 382.18"
/>
<path stroke="#8d8c8d" vector-effect="non-scaling-stroke" d="
  M 526.89 228.58
  A 0.28 0.26 47.9 0 0 527.09 228.60
  Q 530.79 227.24 530.84 223.94
  Q 530.87 221.82 528.76 219.82
  C 526.58 217.75 520.82 212.08 517.41 213.90
  Q 514.47 215.47 515.11 218.60
  C 515.93 222.69 523.34 226.79 526.89 228.58"
/>
<path stroke="#707179" vector-effect="non-scaling-stroke" d="
  M 313.27 215.54
  Q 311.68 215.67 310.78 217.18"
/>
<path stroke="#8d8c8d" vector-effect="non-scaling-stroke" d="
  M 310.78 217.18
  L 308.71 219.00"
/>
<path stroke="#707179" vector-effect="non-scaling-stroke" d="
  M 308.71 219.00
  Q 306.33 219.99 306.47 221.23"
/>
<path stroke="#8d8c8d" vector-effect="non-scaling-stroke" d="
  M 306.47 221.23
  L 305.81 221.82
  Q 305.43 222.16 305.38 222.66
  Q 305.20 224.41 305.66 225.74"
/>
<path stroke="#707179" vector-effect="non-scaling-stroke" d="
  M 305.66 225.74
  Q 306.24 226.84 307.58 227.36"
/>
<path stroke="#8d8c8d" vector-effect="non-scaling-stroke" d="
  M 307.58 227.36
  Q 307.76 227.69 310.14 227.82"
/>
<path stroke="#707179" vector-effect="non-scaling-stroke" d="
  M 310.14 227.82
  Q 312.81 227.45 315.49 224.52"
/>
<path stroke="#8d8c8d" vector-effect="non-scaling-stroke" d="
  M 315.49 224.52
  L 316.99 223.25"
/>
<path stroke="#707179" vector-effect="non-scaling-stroke" d="
  M 316.99 223.25
  Q 319.25 222.70 320.29 220.28"
/>
<path stroke="#8d8c8d" vector-effect="non-scaling-stroke" d="
  M 320.29 220.28
  C 323.10 215.15 317.20 211.62 313.27 215.54"
/>
<path stroke="#e1e4ea" vector-effect="non-scaling-stroke" d="
  M 320.29 220.28
  Q 318.15 221.15 316.99 223.25"
/>
<path stroke="#e1e4ea" vector-effect="non-scaling-stroke" d="
  M 315.49 224.52
  Q 314.08 224.40 313.27 225.71
  Q 313.00 226.15 312.49 226.26
  Q 310.85 226.59 310.14 227.82"
/>
<path stroke="#e1e4ea" vector-effect="non-scaling-stroke" d="
  M 307.58 227.36
  Q 307.35 224.60 305.66 225.74"
/>
<path stroke="#e1e4ea" vector-effect="non-scaling-stroke" d="
  M 306.47 221.23
  Q 307.92 220.46 308.71 219.00"
/>
<path stroke="#e1e4ea" vector-effect="non-scaling-stroke" d="
  M 310.78 217.18
  Q 312.13 218.09 313.27 215.54"
/>
<path stroke="#707179" vector-effect="non-scaling-stroke" d="
  M 293.28 552.56
  L 295.40 571.01
  Q 295.46 571.49 295.93 571.39
  C 299.29 570.64 302.90 570.48 306.01 569.80
  C 309.67 569.01 313.56 568.41 317.26 567.79
  Q 331.26 565.47 345.19 562.74
  C 352.32 561.34 359.41 560.26 366.54 559.04
  C 368.72 558.67 371.83 558.59 374.44 557.87
  C 376.26 557.37 377.95 557.57 379.78 557.24
  Q 382.28 556.79 383.77 556.71
  C 387.20 556.54 390.47 555.58 393.76 555.48
  Q 397.44 555.38 401.13 555.04
  C 403.83 554.79 403.49 552.33 404.21 550.70
  Q 408.26 541.49 413.15 532.21"
/>
<path stroke="#8d8c8d" vector-effect="non-scaling-stroke" d="
  M 413.15 532.21
  Q 422.15 516.94 430.72 505.99
  Q 449.52 481.96 477.29 467.37
  C 483.23 464.25 496.09 457.05 502.49 459.92
  C 509.87 463.23 508.21 472.91 501.42 475.93
  C 473.14 488.48 451.53 506.79 434.94 532.94"
/>
<path stroke="#707179" vector-effect="non-scaling-stroke" d="
  M 434.94 532.94
  L 423.51 554.10
  Q 423.28 554.53 423.76 554.53
  L 555.92 554.55
  Q 556.27 554.55 556.37 554.21
  Q 556.56 553.50 556.71 552.79
  Q 557.51 548.98 557.67 545.10
  C 557.80 542.29 558.44 539.12 558.46 535.75
  Q 558.56 522.30 558.28 516.48"
/>
<path stroke="#8d8c8d" vector-effect="non-scaling-stroke" d="
  M 558.28 516.48
  Q 558.36 511.79 558.01 508.74
  C 554.56 478.68 543.85 451.80 532.67 427.05
  Q 525.82 411.89 523.96 402.52
  Q 521.85 391.89 522.65 374.74
  Q 524.01 345.83 528.07 317.17
  Q 531.42 293.49 535.97 270.01
  Q 537.39 262.70 539.21 255.47
  C 539.56 254.09 539.47 252.17 540.41 250.59
  Q 540.69 250.12 540.17 250.26
  Q 522.56 255.01 504.51 257.58
  C 501.34 258.04 497.94 259.06 494.74 259.23
  C 491.99 259.38 489.26 260.07 486.67 260.30
  C 477.54 261.11 469.66 262.10 456.81 262.95
  C 441.48 263.97 425.93 264.36 410.79 264.26
  C 402.31 264.20 392.78 263.51 383.75 263.26
  Q 366.90 262.79 339.16 258.96
  C 324.92 256.99 311.32 254.49 296.55 250.18
  Q 296.06 250.03 296.16 250.53
  C 297.26 255.84 298.87 261.57 299.79 266.36
  Q 302.98 282.87 306.28 306.26
  Q 307.26 313.22 307.42 316.75
  Q 307.44 317.24 307.94 317.24
  Q 321.44 317.22 334.94 317.01
  Q 341.48 316.91 343.87 318.08
  C 348.74 320.46 350.28 328.18 346.59 332.58
  C 344.33 335.27 342.50 336.30 338.77 336.31
  C 328.75 336.33 319.18 335.40 308.79 335.30
  Q 308.30 335.30 308.27 335.78
  L 307.23 350.26
  A 0.54 0.54 0.0 0 0 307.96 350.81
  C 309.18 350.34 310.08 351.07 311.02 351.21
  C 314.13 351.66 317.24 351.63 320.30 352.09
  C 324.55 352.74 328.80 352.54 332.95 353.04
  C 335.86 353.40 339.51 353.31 341.98 354.49
  C 349.05 357.86 349.87 367.42 343.48 371.89
  C 338.67 375.26 329.66 372.62 324.41 371.74
  C 318.49 370.75 311.78 368.98 305.34 368.02
  Q 304.85 367.95 304.74 368.43
  L 301.65 382.82
  Q 301.54 383.32 302.04 383.44
  Q 314.89 386.57 327.74 389.72
  C 333.67 391.17 340.00 394.43 340.43 401.02
  C 340.92 408.54 334.34 413.67 326.99 411.27
  Q 311.23 406.12 295.76 400.27
  A 0.56 0.55 23.2 0 0 295.06 400.54
  L 290.29 410.26
  A 1.53 1.52 -63.9 0 0 290.98 412.31
  Q 300.32 416.94 309.64 422.03
  Q 316.83 425.96 321.60 429.40
  C 326.62 433.02 328.29 440.04 324.22 444.94
  C 319.43 450.71 312.30 448.24 307.15 444.60
  Q 294.18 435.45 281.15 426.34
  Q 280.81 426.10 280.55 426.44
  L 270.54 439.47
  Q 269.90 440.31 270.67 441.02
  L 278.69 448.46
  A 1.25 1.23 61.5 0 0 279.74 448.78
  Q 282.45 448.37 284.62 449.87
  C 291.13 454.37 307.58 466.73 295.82 475.41
  C 288.98 480.46 282.36 475.36 278.42 469.51
  C 273.41 462.07 268.44 452.19 260.88 447.13
  Q 260.49 446.87 260.12 447.15
  L 241.20 461.36
  Q 241.02 461.50 241.22 461.61
  C 261.14 473.63 275.01 492.52 283.31 514.49
  C 288.17 527.37 290.86 539.54 293.28 552.56"
/>
<path stroke="#e1e4ea" vector-effect="non-scaling-stroke" d="
  M 558.28 516.48
  C 557.07 520.43 555.88 524.67 553.63 527.95
  C 547.48 536.92 536.53 540.04 526.74 540.72
  Q 485.44 543.60 441.07 535.58
  Q 436.36 534.73 434.94 532.94"
/>
<path stroke="#e1e4ea" vector-effect="non-scaling-stroke" d="
  M 413.15 532.21
  C 400.64 533.94 388.45 536.40 376.08 538.35
  C 352.41 542.07 328.80 546.88 305.22 551.15
  Q 298.27 552.41 293.28 552.56"
/>
<path stroke="#707179" vector-effect="non-scaling-stroke" d="
  M 129.32 537.04
  L 126.19 553.83
  Q 125.94 555.22 127.28 555.64
  C 149.98 562.65 174.23 568.78 198.18 571.60
  C 200.02 571.82 202.23 572.48 204.42 572.57
  Q 206.94 572.68 209.03 573.10
  C 212.09 573.71 214.95 573.36 218.04 573.97
  C 223.07 574.95 229.09 574.59 234.25 574.70
  C 234.82 574.71 235.10 574.95 235.59 574.98
  C 245.47 575.50 255.16 574.86 265.00 574.65
  Q 269.98 574.55 274.99 574.28
  Q 275.52 574.25 275.53 573.72
  C 275.58 570.28 275.63 567.75 274.89 563.97
  C 274.41 561.50 274.53 559.07 274.01 556.65
  Q 273.52 554.34 273.32 552.23"
/>
<path stroke="#8d8c8d" vector-effect="non-scaling-stroke" d="
  M 273.32 552.23
  Q 269.96 531.11 261.01 512.17
  C 252.33 493.81 235.16 473.70 213.50 471.50
  C 171.32 467.23 137.64 496.79 129.32 537.04"
/>
<path stroke="#e1e4ea" vector-effect="non-scaling-stroke" d="
  M 273.32 552.23
  Q 269.63 553.49 266.00 553.72
  C 223.65 556.36 180.52 554.83 139.94 540.69
  Q 134.65 538.85 129.32 537.04"
/>
<path stroke="#8d8c8d" vector-effect="non-scaling-stroke" d="
  M 416.82 599.14
  Q 417.04 603.28 416.76 607.40
  C 416.60 609.81 417.09 614.60 418.49 616.47
  C 420.72 619.45 423.33 620.70 427.26 620.71
  Q 475.51 620.77 523.75 620.76
  Q 536.75 620.76 546.97 616.75
  C 552.05 614.77 556.31 609.52 556.21 603.65
  Q 555.96 590.28 556.04 576.00
  A 1.71 1.70 90.0 0 0 554.34 574.29
  Q 491.69 574.24 428.00 574.29
  Q 395.13 574.32 366.92 579.24
  C 353.71 581.54 340.86 583.52 327.29 586.15
  Q 304.02 590.65 295.50 591.25
  C 292.23 591.47 289.05 592.11 286.38 592.25
  C 276.29 592.77 266.53 594.27 256.59 594.29
  Q 243.55 594.31 230.51 594.02
  Q 227.90 593.97 218.25 593.32
  C 188.33 591.33 157.41 585.76 128.21 576.70
  C 127.03 576.33 125.89 576.39 124.80 575.30
  A 0.31 0.30 -67.7 0 0 124.28 575.52
  L 124.28 602.74
  A 1.47 1.47 0.0 0 0 124.85 603.90
  C 129.24 607.26 135.97 609.45 140.75 610.47
  Q 159.88 614.57 179.24 617.33
  Q 181.15 617.60 183.08 617.69
  C 186.26 617.85 189.26 618.60 192.45 618.74
  Q 195.82 618.89 198.02 619.16
  C 202.47 619.71 206.89 619.59 211.33 620.19
  Q 214.45 620.61 216.50 620.63
  Q 227.26 620.76 238.00 621.22
  Q 253.73 621.90 308.47 620.65
  Q 317.41 620.44 321.79 612.45
  Q 322.03 612.01 322.51 611.89
  C 343.19 606.81 362.23 603.70 382.45 601.25
  C 393.71 599.89 404.98 599.40 416.21 598.61
  Q 416.79 598.57 416.82 599.14"
/>
<path stroke="#8d8c8d" vector-effect="non-scaling-stroke" d="
  M 370.72 105.93
  L 344.17 87.13
  A 0.47 0.47 0.0 0 0 343.43 87.51
  L 343.49 129.24
  A 0.20 0.20 0.0 0 0 343.85 129.37
  Q 354.96 115.29 370.68 106.58
  A 0.39 0.38 48.7 0 0 370.72 105.93"
/>
<path stroke="#8d8c8d" vector-effect="non-scaling-stroke" d="
  M 464.78 106.67
  C 474.40 112.76 483.56 119.92 490.60 128.97
  Q 491.21 129.75 491.21 128.76
  L 491.21 88.23
  A 0.69 0.69 0.0 0 0 490.12 87.67
  L 464.75 105.76
  A 0.55 0.55 0.0 0 0 464.78 106.67"
/>
<path stroke="#8d8c8d" vector-effect="non-scaling-stroke" d="
  M 396.01 162.67
  A 19.83 19.83 0.0 0 0 376.18 142.84
  A 19.83 19.83 0.0 0 0 356.35 162.67
  A 19.83 19.83 0.0 0 0 376.18 182.50
  A 19.83 19.83 0.0 0 0 396.01 162.67"
/>
<path stroke="#8d8c8d" vector-effect="non-scaling-stroke" d="
  M 478.34 162.68
  A 19.86 19.86 0.0 0 0 458.48 142.82
  A 19.86 19.86 0.0 0 0 438.62 162.68
  A 19.86 19.86 0.0 0 0 458.48 182.54
  A 19.86 19.86 0.0 0 0 478.34 162.68"
/>
<path stroke="#8d8c8d" vector-effect="non-scaling-stroke" d="
  M 417.50 211.25
  C 420.85 213.12 423.36 215.23 427.50 213.79
  C 434.26 211.43 438.84 203.95 436.13 196.85
  C 435.28 194.64 433.31 193.04 431.00 192.98
  Q 425.51 192.82 406.47 192.85
  Q 401.80 192.86 401.54 192.91
  C 391.48 194.79 400.13 223.32 416.58 211.30
  Q 417.02 210.98 417.50 211.25"
/>
</g>
<g fill="#333">
<path d="
  M 0.00 0.00
  L 700.00 0.00
  L 700.00 700.00
  L 0.00 700.00
  L 0.00 0.00
  Z
  M 328.91 153.92
  Q 327.06 156.22 327.28 159.15
  Q 327.30 159.50 327.03 159.73
  Q 326.89 159.85 326.82 160.02
  Q 326.54 160.65 326.54 161.02
  C 326.48 164.04 325.41 166.99 325.37 169.70
  C 324.95 200.05 345.68 222.43 373.01 232.71
  Q 386.19 237.66 395.00 238.50
  C 405.10 239.45 414.10 241.08 425.63 240.24
  C 427.62 240.09 429.89 239.63 432.08 239.45
  C 459.84 237.14 488.30 224.74 502.85 200.10
  C 508.15 191.13 509.64 182.50 510.04 172.11
  C 510.12 170.04 509.61 167.85 509.50 165.67
  C 509.30 161.89 508.40 158.94 507.51 155.49
  Q 506.21 150.52 506.28 149.10
  Q 506.62 113.29 506.26 78.37
  Q 506.19 72.31 504.98 69.83
  C 502.57 64.96 496.57 63.78 492.00 66.89
  Q 470.19 81.78 448.33 96.62
  C 446.07 98.15 445.76 99.38 442.46 98.28
  C 426.81 93.05 407.38 94.24 391.91 98.47
  C 389.81 99.04 388.96 98.87 387.30 97.67
  Q 372.88 87.32 345.23 68.55
  C 343.25 67.21 341.13 65.57 338.77 65.26
  C 333.37 64.56 329.69 68.00 329.29 73.25
  Q 329.14 75.25 329.13 77.25
  Q 328.99 115.64 328.91 153.92
  Z
  M 300.7942 129.3941
  A 4.39 4.39 0.0 0 0 299.9087 123.2492
  L 284.3585 111.6162
  A 4.39 4.39 0.0 0 0 278.2136 112.5017
  L 278.0458 112.7259
  A 4.39 4.39 0.0 0 0 278.9313 118.8708
  L 294.4815 130.5038
  A 4.39 4.39 0.0 0 0 300.6264 129.6183
  L 300.7942 129.3941
  Z
  M 559.8615 112.5122
  A 4.34 4.34 0.0 0 0 553.7850 111.6474
  L 538.3191 123.2595
  A 4.34 4.34 0.0 0 0 537.4543 129.3360
  L 537.7185 129.6878
  A 4.34 4.34 0.0 0 0 543.7950 130.5526
  L 559.2609 118.9405
  A 4.34 4.34 0.0 0 0 560.1257 112.8640
  L 559.8615 112.5122
  Z
  M 540.50 152.07
  C 538.85 152.08 537.08 151.78 536.39 153.94
  Q 536.25 154.37 536.34 154.82
  Q 536.45 155.34 536.14 155.78
  Q 535.85 156.19 535.91 156.69
  Q 536.17 158.82 537.51 160.43
  Q 537.82 160.80 538.30 160.73
  Q 539.03 160.62 539.54 161.01
  Q 540.04 161.40 540.68 161.39
  L 568.28 160.89
  A 3.27 3.27 0.0 0 0 571.49 157.41
  L 571.42 156.35
  Q 571.14 152.03 566.82 152.02
  Q 552.61 151.98 540.50 152.07
  Z
  M 271.26 158.54
  Q 271.60 159.83 272.99 160.44
  Q 273.45 160.64 273.93 160.78
  Q 274.50 160.94 275.02 161.25
  A 1.29 1.25 57.6 0 0 275.77 161.43
  Q 285.78 160.88 295.75 161.23
  Q 298.98 161.35 300.54 160.50
  C 304.40 158.38 303.02 151.98 298.76 151.98
  Q 287.92 151.97 277.06 151.92
  C 275.62 151.92 274.34 152.38 272.77 152.31
  Q 272.27 152.29 272.02 152.73
  Q 271.16 154.21 270.45 155.73
  C 270.07 156.56 270.22 157.19 270.82 157.79
  Q 271.14 158.11 271.26 158.54
  Z
  M 227.88 382.18
  C 236.79 390.43 247.51 394.20 259.18 396.96
  C 260.86 397.36 262.74 397.40 264.54 397.77
  C 267.61 398.42 269.88 398.49 272.73 398.58
  Q 273.22 398.59 273.47 398.17
  C 277.63 391.21 279.97 382.69 281.63 374.74
  L 284.26 364.06
  Q 284.38 363.55 283.86 363.56
  C 269.98 363.91 255.48 360.34 245.80 349.66
  Q 235.80 338.63 235.84 322.24
  Q 235.92 287.04 236.01 251.85
  Q 236.03 242.90 235.45 238.18
  C 233.24 220.38 224.49 203.77 211.28 191.82
  C 167.94 152.62 106.30 182.90 101.39 238.25
  C 100.54 247.81 105.07 258.26 114.47 261.42
  C 124.37 264.74 134.38 258.90 137.36 249.01
  C 138.84 244.09 138.29 236.71 139.77 230.75
  C 144.08 213.36 163.13 204.42 179.34 211.77
  C 186.98 215.23 193.49 222.13 196.64 229.87
  Q 200.23 238.72 200.25 244.75
  Q 200.39 281.63 200.36 318.50
  Q 200.35 332.70 201.22 338.45
  Q 205.31 365.38 227.88 382.18
  Z
  M 526.89 228.58
  A 0.28 0.26 47.9 0 0 527.09 228.60
  Q 530.79 227.24 530.84 223.94
  Q 530.87 221.82 528.76 219.82
  C 526.58 217.75 520.82 212.08 517.41 213.90
  Q 514.47 215.47 515.11 218.60
  C 515.93 222.69 523.34 226.79 526.89 228.58
  Z
  M 313.27 215.54
  Q 311.68 215.67 310.78 217.18
  L 308.71 219.00
  Q 306.33 219.99 306.47 221.23
  L 305.81 221.82
  Q 305.43 222.16 305.38 222.66
  Q 305.20 224.41 305.66 225.74
  Q 306.24 226.84 307.58 227.36
  Q 307.76 227.69 310.14 227.82
  Q 312.81 227.45 315.49 224.52
  L 316.99 223.25
  Q 319.25 222.70 320.29 220.28
  C 323.10 215.15 317.20 211.62 313.27 215.54
  Z
  M 293.28 552.56
  L 295.40 571.01
  Q 295.46 571.49 295.93 571.39
  C 299.29 570.64 302.90 570.48 306.01 569.80
  C 309.67 569.01 313.56 568.41 317.26 567.79
  Q 331.26 565.47 345.19 562.74
  C 352.32 561.34 359.41 560.26 366.54 559.04
  C 368.72 558.67 371.83 558.59 374.44 557.87
  C 376.26 557.37 377.95 557.57 379.78 557.24
  Q 382.28 556.79 383.77 556.71
  C 387.20 556.54 390.47 555.58 393.76 555.48
  Q 397.44 555.38 401.13 555.04
  C 403.83 554.79 403.49 552.33 404.21 550.70
  Q 408.26 541.49 413.15 532.21
  Q 422.15 516.94 430.72 505.99
  Q 449.52 481.96 477.29 467.37
  C 483.23 464.25 496.09 457.05 502.49 459.92
  C 509.87 463.23 508.21 472.91 501.42 475.93
  C 473.14 488.48 451.53 506.79 434.94 532.94
  L 423.51 554.10
  Q 423.28 554.53 423.76 554.53
  L 555.92 554.55
  Q 556.27 554.55 556.37 554.21
  Q 556.56 553.50 556.71 552.79
  Q 557.51 548.98 557.67 545.10
  C 557.80 542.29 558.44 539.12 558.46 535.75
  Q 558.56 522.30 558.28 516.48
  Q 558.36 511.79 558.01 508.74
  C 554.56 478.68 543.85 451.80 532.67 427.05
  Q 525.82 411.89 523.96 402.52
  Q 521.85 391.89 522.65 374.74
  Q 524.01 345.83 528.07 317.17
  Q 531.42 293.49 535.97 270.01
  Q 537.39 262.70 539.21 255.47
  C 539.56 254.09 539.47 252.17 540.41 250.59
  Q 540.69 250.12 540.17 250.26
  Q 522.56 255.01 504.51 257.58
  C 501.34 258.04 497.94 259.06 494.74 259.23
  C 491.99 259.38 489.26 260.07 486.67 260.30
  C 477.54 261.11 469.66 262.10 456.81 262.95
  C 441.48 263.97 425.93 264.36 410.79 264.26
  C 402.31 264.20 392.78 263.51 383.75 263.26
  Q 366.90 262.79 339.16 258.96
  C 324.92 256.99 311.32 254.49 296.55 250.18
  Q 296.06 250.03 296.16 250.53
  C 297.26 255.84 298.87 261.57 299.79 266.36
  Q 302.98 282.87 306.28 306.26
  Q 307.26 313.22 307.42 316.75
  Q 307.44 317.24 307.94 317.24
  Q 321.44 317.22 334.94 317.01
  Q 341.48 316.91 343.87 318.08
  C 348.74 320.46 350.28 328.18 346.59 332.58
  C 344.33 335.27 342.50 336.30 338.77 336.31
  C 328.75 336.33 319.18 335.40 308.79 335.30
  Q 308.30 335.30 308.27 335.78
  L 307.23 350.26
  A 0.54 0.54 0.0 0 0 307.96 350.81
  C 309.18 350.34 310.08 351.07 311.02 351.21
  C 314.13 351.66 317.24 351.63 320.30 352.09
  C 324.55 352.74 328.80 352.54 332.95 353.04
  C 335.86 353.40 339.51 353.31 341.98 354.49
  C 349.05 357.86 349.87 367.42 343.48 371.89
  C 338.67 375.26 329.66 372.62 324.41 371.74
  C 318.49 370.75 311.78 368.98 305.34 368.02
  Q 304.85 367.95 304.74 368.43
  L 301.65 382.82
  Q 301.54 383.32 302.04 383.44
  Q 314.89 386.57 327.74 389.72
  C 333.67 391.17 340.00 394.43 340.43 401.02
  C 340.92 408.54 334.34 413.67 326.99 411.27
  Q 311.23 406.12 295.76 400.27
  A 0.56 0.55 23.2 0 0 295.06 400.54
  L 290.29 410.26
  A 1.53 1.52 -63.9 0 0 290.98 412.31
  Q 300.32 416.94 309.64 422.03
  Q 316.83 425.96 321.60 429.40
  C 326.62 433.02 328.29 440.04 324.22 444.94
  C 319.43 450.71 312.30 448.24 307.15 444.60
  Q 294.18 435.45 281.15 426.34
  Q 280.81 426.10 280.55 426.44
  L 270.54 439.47
  Q 269.90 440.31 270.67 441.02
  L 278.69 448.46
  A 1.25 1.23 61.5 0 0 279.74 448.78
  Q 282.45 448.37 284.62 449.87
  C 291.13 454.37 307.58 466.73 295.82 475.41
  C 288.98 480.46 282.36 475.36 278.42 469.51
  C 273.41 462.07 268.44 452.19 260.88 447.13
  Q 260.49 446.87 260.12 447.15
  L 241.20 461.36
  Q 241.02 461.50 241.22 461.61
  C 261.14 473.63 275.01 492.52 283.31 514.49
  C 288.17 527.37 290.86 539.54 293.28 552.56
  Z
  M 129.32 537.04
  L 126.19 553.83
  Q 125.94 555.22 127.28 555.64
  C 149.98 562.65 174.23 568.78 198.18 571.60
  C 200.02 571.82 202.23 572.48 204.42 572.57
  Q 206.94 572.68 209.03 573.10
  C 212.09 573.71 214.95 573.36 218.04 573.97
  C 223.07 574.95 229.09 574.59 234.25 574.70
  C 234.82 574.71 235.10 574.95 235.59 574.98
  C 245.47 575.50 255.16 574.86 265.00 574.65
  Q 269.98 574.55 274.99 574.28
  Q 275.52 574.25 275.53 573.72
  C 275.58 570.28 275.63 567.75 274.89 563.97
  C 274.41 561.50 274.53 559.07 274.01 556.65
  Q 273.52 554.34 273.32 552.23
  Q 269.96 531.11 261.01 512.17
  C 252.33 493.81 235.16 473.70 213.50 471.50
  C 171.32 467.23 137.64 496.79 129.32 537.04
  Z
  M 416.82 599.14
  Q 417.04 603.28 416.76 607.40
  C 416.60 609.81 417.09 614.60 418.49 616.47
  C 420.72 619.45 423.33 620.70 427.26 620.71
  Q 475.51 620.77 523.75 620.76
  Q 536.75 620.76 546.97 616.75
  C 552.05 614.77 556.31 609.52 556.21 603.65
  Q 555.96 590.28 556.04 576.00
  A 1.71 1.70 90.0 0 0 554.34 574.29
  Q 491.69 574.24 428.00 574.29
  Q 395.13 574.32 366.92 579.24
  C 353.71 581.54 340.86 583.52 327.29 586.15
  Q 304.02 590.65 295.50 591.25
  C 292.23 591.47 289.05 592.11 286.38 592.25
  C 276.29 592.77 266.53 594.27 256.59 594.29
  Q 243.55 594.31 230.51 594.02
  Q 227.90 593.97 218.25 593.32
  C 188.33 591.33 157.41 585.76 128.21 576.70
  C 127.03 576.33 125.89 576.39 124.80 575.30
  A 0.31 0.30 -67.7 0 0 124.28 575.52
  L 124.28 602.74
  A 1.47 1.47 0.0 0 0 124.85 603.90
  C 129.24 607.26 135.97 609.45 140.75 610.47
  Q 159.88 614.57 179.24 617.33
  Q 181.15 617.60 183.08 617.69
  C 186.26 617.85 189.26 618.60 192.45 618.74
  Q 195.82 618.89 198.02 619.16
  C 202.47 619.71 206.89 619.59 211.33 620.19
  Q 214.45 620.61 216.50 620.63
  Q 227.26 620.76 238.00 621.22
  Q 253.73 621.90 308.47 620.65
  Q 317.41 620.44 321.79 612.45
  Q 322.03 612.01 322.51 611.89
  C 343.19 606.81 362.23 603.70 382.45 601.25
  C 393.71 599.89 404.98 599.40 416.21 598.61
  Q 416.79 598.57 416.82 599.14
  Z"
/>
<path d="
  M 370.72 105.93
  A 0.39 0.38 48.7 0 1 370.68 106.58
  Q 354.96 115.29 343.85 129.37
  A 0.20 0.20 0.0 0 1 343.49 129.24
  L 343.43 87.51
  A 0.47 0.47 0.0 0 1 344.17 87.13
  L 370.72 105.93
  Z"
/>
<path d="
  M 490.60 128.97
  C 483.56 119.92 474.40 112.76 464.78 106.67
  A 0.55 0.55 0.0 0 1 464.75 105.76
  L 490.12 87.67
  A 0.69 0.69 0.0 0 1 491.21 88.23
  L 491.21 128.76
  Q 491.21 129.75 490.60 128.97
  Z"
/>
<circle cx="376.18" cy="162.67" r="19.83"/>
<circle cx="458.48" cy="162.68" r="19.86"/>
<path d="
  M 416.58 211.30
  C 400.13 223.32 391.48 194.79 401.54 192.91
  Q 401.80 192.86 406.47 192.85
  Q 425.51 192.82 431.00 192.98
  C 433.31 193.04 435.28 194.64 436.13 196.85
  C 438.84 203.95 434.26 211.43 427.50 213.79
  C 423.36 215.23 420.85 213.12 417.50 211.25
  Q 417.02 210.98 416.58 211.30
  Z"
/>
</g>
<g fill="#fefefe">
<path d="
  M 506.28 149.10
  Q 503.72 147.39 501.75 143.76
  Q 501.49 143.28 501.03 143.44
  Q 500.54 143.62 500.61 144.13
  C 501.81 152.76 501.96 160.07 498.88 168.19
  C 489.85 192.01 471.95 213.00 447.73 222.26
  C 409.25 236.99 368.85 222.44 345.94 189.08
  C 337.34 176.55 331.66 160.81 334.49 146.14
  Q 335.18 142.57 333.28 145.67
  Q 331.13 149.19 328.91 153.92
  Q 328.99 115.64 329.13 77.25
  Q 329.14 75.25 329.29 73.25
  C 329.69 68.00 333.37 64.56 338.77 65.26
  C 341.13 65.57 343.25 67.21 345.23 68.55
  Q 372.88 87.32 387.30 97.67
  C 388.96 98.87 389.81 99.04 391.91 98.47
  C 407.38 94.24 426.81 93.05 442.46 98.28
  C 445.76 99.38 446.07 98.15 448.33 96.62
  Q 470.19 81.78 492.00 66.89
  C 496.57 63.78 502.57 64.96 504.98 69.83
  Q 506.19 72.31 506.26 78.37
  Q 506.62 113.29 506.28 149.10
  Z
  M 370.72 105.93
  L 344.17 87.13
  A 0.47 0.47 0.0 0 0 343.43 87.51
  L 343.49 129.24
  A 0.20 0.20 0.0 0 0 343.85 129.37
  Q 354.96 115.29 370.68 106.58
  A 0.39 0.38 48.7 0 0 370.72 105.93
  Z
  M 464.78 106.67
  C 474.40 112.76 483.56 119.92 490.60 128.97
  Q 491.21 129.75 491.21 128.76
  L 491.21 88.23
  A 0.69 0.69 0.0 0 0 490.12 87.67
  L 464.75 105.76
  A 0.55 0.55 0.0 0 0 464.78 106.67
  Z
  M 396.01 162.67
  A 19.83 19.83 0.0 0 0 376.18 142.84
  A 19.83 19.83 0.0 0 0 356.35 162.67
  A 19.83 19.83 0.0 0 0 376.18 182.50
  A 19.83 19.83 0.0 0 0 396.01 162.67
  Z
  M 478.34 162.68
  A 19.86 19.86 0.0 0 0 458.48 142.82
  A 19.86 19.86 0.0 0 0 438.62 162.68
  A 19.86 19.86 0.0 0 0 458.48 182.54
  A 19.86 19.86 0.0 0 0 478.34 162.68
  Z
  M 417.50 211.25
  C 420.85 213.12 423.36 215.23 427.50 213.79
  C 434.26 211.43 438.84 203.95 436.13 196.85
  C 435.28 194.64 433.31 193.04 431.00 192.98
  Q 425.51 192.82 406.47 192.85
  Q 401.80 192.86 401.54 192.91
  C 391.48 194.79 400.13 223.32 416.58 211.30
  Q 417.02 210.98 417.50 211.25
  Z"
/>
<rect x="-14.10" y="-4.53" transform="translate(289.42,121.06) rotate(36.8)" width="28.20" height="9.06" rx="4.39"/>
<rect x="-14.01" y="-4.56" transform="translate(548.79,121.10) rotate(-36.9)" width="28.02" height="9.12" rx="4.34"/>
<path d="
  M 536.39 153.94
  C 537.08 151.78 538.85 152.08 540.50 152.07
  Q 552.61 151.98 566.82 152.02
  Q 571.14 152.03 571.42 156.35
  L 571.49 157.41
  A 3.27 3.27 0.0 0 1 568.28 160.89
  L 540.68 161.39
  Q 540.04 161.40 539.54 161.01
  Q 539.03 160.62 538.30 160.73
  Q 537.82 160.80 537.51 160.43
  Q 536.17 158.82 535.91 156.69
  Q 535.85 156.19 536.14 155.78
  Q 536.45 155.34 536.34 154.82
  Q 536.25 154.37 536.39 153.94
  Z"
/>
<path d="
  M 270.82 157.79
  C 270.22 157.19 270.07 156.56 270.45 155.73
  Q 271.16 154.21 272.02 152.73
  Q 272.27 152.29 272.77 152.31
  C 274.34 152.38 275.62 151.92 277.06 151.92
  Q 287.92 151.97 298.76 151.98
  C 303.02 151.98 304.40 158.38 300.54 160.50
  Q 298.98 161.35 295.75 161.23
  Q 285.78 160.88 275.77 161.43
  A 1.29 1.25 57.6 0 1 275.02 161.25
  Q 274.50 160.94 273.93 160.78
  Q 273.45 160.64 272.99 160.44
  Q 271.60 159.83 271.26 158.54
  Q 271.14 158.11 270.82 157.79
  Z"
/>
<path d="
  M 281.63 374.74
  Q 278.91 376.78 276.33 378.72
  C 266.24 386.32 251.20 388.29 239.22 384.83
  Q 231.86 382.71 227.88 382.18
  Q 205.31 365.38 201.22 338.45
  Q 200.35 332.70 200.36 318.50
  Q 200.39 281.63 200.25 244.75
  Q 200.23 238.72 196.64 229.87
  C 193.49 222.13 186.98 215.23 179.34 211.77
  C 163.13 204.42 144.08 213.36 139.77 230.75
  C 138.29 236.71 138.84 244.09 137.36 249.01
  C 134.38 258.90 124.37 264.74 114.47 261.42
  C 105.07 258.26 100.54 247.81 101.39 238.25
  C 106.30 182.90 167.94 152.62 211.28 191.82
  C 224.49 203.77 233.24 220.38 235.45 238.18
  Q 236.03 242.90 236.01 251.85
  Q 235.92 287.04 235.84 322.24
  Q 235.80 338.63 245.80 349.66
  C 255.48 360.34 269.98 363.91 283.86 363.56
  Q 284.38 363.55 284.26 364.06
  L 281.63 374.74
  Z"
/>
<path d="
  M 526.89 228.58
  C 523.34 226.79 515.93 222.69 515.11 218.60
  Q 514.47 215.47 517.41 213.90
  C 520.82 212.08 526.58 217.75 528.76 219.82
  Q 530.87 221.82 530.84 223.94
  Q 530.79 227.24 527.09 228.60
  A 0.28 0.26 47.9 0 1 526.89 228.58
  Z"
/>
<path d="
  M 320.29 220.28
  Q 318.15 221.15 316.99 223.25
  L 315.49 224.52
  Q 314.08 224.40 313.27 225.71
  Q 313.00 226.15 312.49 226.26
  Q 310.85 226.59 310.14 227.82
  Q 307.76 227.69 307.58 227.36
  Q 307.35 224.60 305.66 225.74
  Q 305.20 224.41 305.38 222.66
  Q 305.43 222.16 305.81 221.82
  L 306.47 221.23
  Q 307.92 220.46 308.71 219.00
  L 310.78 217.18
  Q 312.13 218.09 313.27 215.54
  C 317.20 211.62 323.10 215.15 320.29 220.28
  Z"
/>
<path d="
  M 558.28 516.48
  C 557.07 520.43 555.88 524.67 553.63 527.95
  C 547.48 536.92 536.53 540.04 526.74 540.72
  Q 485.44 543.60 441.07 535.58
  Q 436.36 534.73 434.94 532.94
  C 451.53 506.79 473.14 488.48 501.42 475.93
  C 508.21 472.91 509.87 463.23 502.49 459.92
  C 496.09 457.05 483.23 464.25 477.29 467.37
  Q 449.52 481.96 430.72 505.99
  Q 422.15 516.94 413.15 532.21
  C 400.64 533.94 388.45 536.40 376.08 538.35
  C 352.41 542.07 328.80 546.88 305.22 551.15
  Q 298.27 552.41 293.28 552.56
  C 290.86 539.54 288.17 527.37 283.31 514.49
  C 275.01 492.52 261.14 473.63 241.22 461.61
  Q 241.02 461.50 241.20 461.36
  L 260.12 447.15
  Q 260.49 446.87 260.88 447.13
  C 268.44 452.19 273.41 462.07 278.42 469.51
  C 282.36 475.36 288.98 480.46 295.82 475.41
  C 307.58 466.73 291.13 454.37 284.62 449.87
  Q 282.45 448.37 279.74 448.78
  A 1.25 1.23 61.5 0 1 278.69 448.46
  L 270.67 441.02
  Q 269.90 440.31 270.54 439.47
  L 280.55 426.44
  Q 280.81 426.10 281.15 426.34
  Q 294.18 435.45 307.15 444.60
  C 312.30 448.24 319.43 450.71 324.22 444.94
  C 328.29 440.04 326.62 433.02 321.60 429.40
  Q 316.83 425.96 309.64 422.03
  Q 300.32 416.94 290.98 412.31
  A 1.53 1.52 -63.9 0 1 290.29 410.26
  L 295.06 400.54
  A 0.56 0.55 23.2 0 1 295.76 400.27
  Q 311.23 406.12 326.99 411.27
  C 334.34 413.67 340.92 408.54 340.43 401.02
  C 340.00 394.43 333.67 391.17 327.74 389.72
  Q 314.89 386.57 302.04 383.44
  Q 301.54 383.32 301.65 382.82
  L 304.74 368.43
  Q 304.85 367.95 305.34 368.02
  C 311.78 368.98 318.49 370.75 324.41 371.74
  C 329.66 372.62 338.67 375.26 343.48 371.89
  C 349.87 367.42 349.05 357.86 341.98 354.49
  C 339.51 353.31 335.86 353.40 332.95 353.04
  C 328.80 352.54 324.55 352.74 320.30 352.09
  C 317.24 351.63 314.13 351.66 311.02 351.21
  C 310.08 351.07 309.18 350.34 307.96 350.81
  A 0.54 0.54 0.0 0 1 307.23 350.26
  L 308.27 335.78
  Q 308.30 335.30 308.79 335.30
  C 319.18 335.40 328.75 336.33 338.77 336.31
  C 342.50 336.30 344.33 335.27 346.59 332.58
  C 350.28 328.18 348.74 320.46 343.87 318.08
  Q 341.48 316.91 334.94 317.01
  Q 321.44 317.22 307.94 317.24
  Q 307.44 317.24 307.42 316.75
  Q 307.26 313.22 306.28 306.26
  Q 302.98 282.87 299.79 266.36
  C 298.87 261.57 297.26 255.84 296.16 250.53
  Q 296.06 250.03 296.55 250.18
  C 311.32 254.49 324.92 256.99 339.16 258.96
  Q 366.90 262.79 383.75 263.26
  C 392.78 263.51 402.31 264.20 410.79 264.26
  C 425.93 264.36 441.48 263.97 456.81 262.95
  C 469.66 262.10 477.54 261.11 486.67 260.30
  C 489.26 260.07 491.99 259.38 494.74 259.23
  C 497.94 259.06 501.34 258.04 504.51 257.58
  Q 522.56 255.01 540.17 250.26
  Q 540.69 250.12 540.41 250.59
  C 539.47 252.17 539.56 254.09 539.21 255.47
  Q 537.39 262.70 535.97 270.01
  Q 531.42 293.49 528.07 317.17
  Q 524.01 345.83 522.65 374.74
  Q 521.85 391.89 523.96 402.52
  Q 525.82 411.89 532.67 427.05
  C 543.85 451.80 554.56 478.68 558.01 508.74
  Q 558.36 511.79 558.28 516.48
  Z"
/>
<path d="
  M 273.32 552.23
  Q 269.63 553.49 266.00 553.72
  C 223.65 556.36 180.52 554.83 139.94 540.69
  Q 134.65 538.85 129.32 537.04
  C 137.64 496.79 171.32 467.23 213.50 471.50
  C 235.16 473.70 252.33 493.81 261.01 512.17
  Q 269.96 531.11 273.32 552.23
  Z"
/>
<path d="
  M 416.21 598.61
  C 404.98 599.40 393.71 599.89 382.45 601.25
  C 362.23 603.70 343.19 606.81 322.51 611.89
  Q 322.03 612.01 321.79 612.45
  Q 317.41 620.44 308.47 620.65
  Q 253.73 621.90 238.00 621.22
  Q 227.26 620.76 216.50 620.63
  Q 214.45 620.61 211.33 620.19
  C 206.89 619.59 202.47 619.71 198.02 619.16
  Q 195.82 618.89 192.45 618.74
  C 189.26 618.60 186.26 617.85 183.08 617.69
  Q 181.15 617.60 179.24 617.33
  Q 159.88 614.57 140.75 610.47
  C 135.97 609.45 129.24 607.26 124.85 603.90
  A 1.47 1.47 0.0 0 1 124.28 602.74
  L 124.28 575.52
  A 0.31 0.30 -67.7 0 1 124.80 575.30
  C 125.89 576.39 127.03 576.33 128.21 576.70
  C 157.41 585.76 188.33 591.33 218.25 593.32
  Q 227.90 593.97 230.51 594.02
  Q 243.55 594.31 256.59 594.29
  C 266.53 594.27 276.29 592.77 286.38 592.25
  C 289.05 592.11 292.23 591.47 295.50 591.25
  Q 304.02 590.65 327.29 586.15
  C 340.86 583.52 353.71 581.54 366.92 579.24
  Q 395.13 574.32 428.00 574.29
  Q 491.69 574.24 554.34 574.29
  A 1.71 1.70 -90.0 0 1 556.04 576.00
  Q 555.96 590.28 556.21 603.65
  C 556.31 609.52 552.05 614.77 546.97 616.75
  Q 536.75 620.76 523.75 620.76
  Q 475.51 620.77 427.26 620.71
  C 423.33 620.70 420.72 619.45 418.49 616.47
  C 417.09 614.60 416.60 609.81 416.76 607.40
  Q 417.04 603.28 416.82 599.14
  Q 416.79 598.57 416.21 598.61
  Z"
/>
</g>
<g fill="#c4c9d6">
<path d="
  M 506.28 149.10
  Q 506.21 150.52 507.51 155.49
  C 508.40 158.94 509.30 161.89 509.50 165.67
  C 509.61 167.85 510.12 170.04 510.04 172.11
  C 509.64 182.50 508.15 191.13 502.85 200.10
  C 488.30 224.74 459.84 237.14 432.08 239.45
  C 429.89 239.63 427.62 240.09 425.63 240.24
  C 414.10 241.08 405.10 239.45 395.00 238.50
  Q 386.19 237.66 373.01 232.71
  C 345.68 222.43 324.95 200.05 325.37 169.70
  C 325.41 166.99 326.48 164.04 326.54 161.02
  Q 326.54 160.65 326.82 160.02
  Q 326.89 159.85 327.03 159.73
  Q 327.30 159.50 327.28 159.15
  Q 327.06 156.22 328.91 153.92
  Q 331.13 149.19 333.28 145.67
  Q 335.18 142.57 334.49 146.14
  C 331.66 160.81 337.34 176.55 345.94 189.08
  C 368.85 222.44 409.25 236.99 447.73 222.26
  C 471.95 213.00 489.85 192.01 498.88 168.19
  C 501.96 160.07 501.81 152.76 500.61 144.13
  Q 500.54 143.62 501.03 143.44
  Q 501.49 143.28 501.75 143.76
  Q 503.72 147.39 506.28 149.10
  Z"
/>
<path d="
  M 313.27 215.54
  Q 312.13 218.09 310.78 217.18
  Q 311.68 215.67 313.27 215.54
  Z"
/>
<path d="
  M 308.71 219.00
  Q 307.92 220.46 306.47 221.23
  Q 306.33 219.99 308.71 219.00
  Z"
/>
<path d="
  M 320.29 220.28
  Q 319.25 222.70 316.99 223.25
  Q 318.15 221.15 320.29 220.28
  Z"
/>
<path d="
  M 315.49 224.52
  Q 312.81 227.45 310.14 227.82
  Q 310.85 226.59 312.49 226.26
  Q 313.00 226.15 313.27 225.71
  Q 314.08 224.40 315.49 224.52
  Z"
/>
<path d="
  M 307.58 227.36
  Q 306.24 226.84 305.66 225.74
  Q 307.35 224.60 307.58 227.36
  Z"
/>
<path d="
  M 281.63 374.74
  C 279.97 382.69 277.63 391.21 273.47 398.17
  Q 273.22 398.59 272.73 398.58
  C 269.88 398.49 267.61 398.42 264.54 397.77
  C 262.74 397.40 260.86 397.36 259.18 396.96
  C 247.51 394.20 236.79 390.43 227.88 382.18
  Q 231.86 382.71 239.22 384.83
  C 251.20 388.29 266.24 386.32 276.33 378.72
  Q 278.91 376.78 281.63 374.74
  Z"
/>
<path d="
  M 558.28 516.48
  Q 558.56 522.30 558.46 535.75
  C 558.44 539.12 557.80 542.29 557.67 545.10
  Q 557.51 548.98 556.71 552.79
  Q 556.56 553.50 556.37 554.21
  Q 556.27 554.55 555.92 554.55
  L 423.76 554.53
  Q 423.28 554.53 423.51 554.10
  L 434.94 532.94
  Q 436.36 534.73 441.07 535.58
  Q 485.44 543.60 526.74 540.72
  C 536.53 540.04 547.48 536.92 553.63 527.95
  C 555.88 524.67 557.07 520.43 558.28 516.48
  Z"
/>
<path d="
  M 413.15 532.21
  Q 408.26 541.49 404.21 550.70
  C 403.49 552.33 403.83 554.79 401.13 555.04
  Q 397.44 555.38 393.76 555.48
  C 390.47 555.58 387.20 556.54 383.77 556.71
  Q 382.28 556.79 379.78 557.24
  C 377.95 557.57 376.26 557.37 374.44 557.87
  C 371.83 558.59 368.72 558.67 366.54 559.04
  C 359.41 560.26 352.32 561.34 345.19 562.74
  Q 331.26 565.47 317.26 567.79
  C 313.56 568.41 309.67 569.01 306.01 569.80
  C 302.90 570.48 299.29 570.64 295.93 571.39
  Q 295.46 571.49 295.40 571.01
  L 293.28 552.56
  Q 298.27 552.41 305.22 551.15
  C 328.80 546.88 352.41 542.07 376.08 538.35
  C 388.45 536.40 400.64 533.94 413.15 532.21
  Z"
/>
<path d="
  M 129.32 537.04
  Q 134.65 538.85 139.94 540.69
  C 180.52 554.83 223.65 556.36 266.00 553.72
  Q 269.63 553.49 273.32 552.23
  Q 273.52 554.34 274.01 556.65
  C 274.53 559.07 274.41 561.50 274.89 563.97
  C 275.63 567.75 275.58 570.28 275.53 573.72
  Q 275.52 574.25 274.99 574.28
  Q 269.98 574.55 265.00 574.65
  C 255.16 574.86 245.47 575.50 235.59 574.98
  C 235.10 574.95 234.82 574.71 234.25 574.70
  C 229.09 574.59 223.07 574.95 218.04 573.97
  C 214.95 573.36 212.09 573.71 209.03 573.10
  Q 206.94 572.68 204.42 572.57
  C 202.23 572.48 200.02 571.82 198.18 571.60
  C 174.23 568.78 149.98 562.65 127.28 555.64
  Q 125.94 555.22 126.19 553.83
  L 129.32 537.04
  Z"
/>
</g>
</svg>
